<svg width="31" height="31" viewBox="0 0 31 31" fill="none" xmlns="http://www.w3.org/2000/svg">
<path fill-rule="evenodd" clip-rule="evenodd" d="M30.0733 17.0597C29.895 18.4234 29.5931 19.6162 29.1208 20.8234C27.4486 25.098 23.9277 28.3815 19.5452 29.7535C19.099 29.8931 18.5168 30.0494 18.4426 30.0494C18.3897 30.0494 18.3318 29.9574 17.1417 27.9842C16.5911 27.0712 16.0763 26.22 15.9977 26.0926C15.9191 25.9652 15.4726 25.227 15.0056 24.452C14.5386 23.6771 14.0858 22.9275 13.9996 22.7864C13.9132 22.6452 13.5337 22.0162 13.156 21.3887C12.7784 20.7611 12.4566 20.2469 12.4408 20.246C12.4251 20.2451 12.4122 22.4737 12.4122 25.1983C12.4122 27.923 12.4038 30.1608 12.3936 30.1712C12.3834 30.1815 12.1903 30.1505 11.9645 30.1021C11.14 29.9256 10.5627 29.7567 9.79808 29.4685C4.8478 27.6024 1.25403 23.3131 0.242416 18.0633C0.0522682 17.0766 -0.000254397 16.4616 5.08329e-05 15.226C0.000317905 14.2355 0.0136293 13.9476 0.0838903 13.4117C0.195194 12.5632 0.42505 11.4075 0.547187 11.0824L0.585712 10.9798L6.42269 10.9798C9.63303 10.9798 12.2597 10.9656 12.2597 10.9482C12.2597 10.9309 11.9893 10.7633 11.6589 10.5758C10.9242 10.159 9.27013 9.21965 7.82543 8.39877C7.23275 8.06204 6.25009 7.50369 5.64169 7.15804C5.03329 6.81244 4.24799 6.36607 3.8966 6.16615C3.54518 5.96623 3.2577 5.78407 3.2577 5.76133C3.2577 5.6803 3.81395 5.04479 4.41796 4.43568C5.61991 3.22352 6.90052 2.29915 8.4262 1.54235C10.0006 0.76142 11.3808 0.343278 13.2323 0.0863788C13.7504 0.014501 14.0243 0.00145371 15.0442 6.40638e-05C16.3274 -0.00163439 16.6881 0.0289002 17.8096 0.23415C20.6759 0.758719 23.4383 2.17844 25.5072 4.19032L25.9193 4.59106L25.8471 4.72616C25.8074 4.80047 25.581 5.24344 25.3439 5.71053C25.1068 6.17762 24.806 6.76824 24.6754 7.02301C24.3956 7.56908 23.9346 8.47396 23.417 9.49357C23.2122 9.89697 22.9289 10.4528 22.7874 10.7289C22.6458 11.0049 22.3538 11.5781 22.1384 12.0027C21.9231 12.4274 21.6401 12.9832 21.5096 13.238C20.7251 14.7695 20.4204 15.3804 20.441 15.3804C20.4538 15.3804 20.6737 15.2527 20.9297 15.0967C21.1857 14.9406 22.0817 14.3993 22.9209 13.8937C23.7601 13.3882 24.7385 12.7976 25.0951 12.5813C25.4517 12.365 26.3872 11.8011 27.1739 11.3282C27.9607 10.8554 28.7564 10.374 28.9422 10.2586C29.128 10.1432 29.2852 10.0541 29.2916 10.0607C29.2979 10.0672 29.3641 10.255 29.4387 10.4779C29.7332 11.3584 29.9827 12.5182 30.0905 13.5082C30.1804 14.3341 30.1802 14.3288 30.1667 15.4191C30.1574 16.18 30.1335 16.6002 30.0733 17.0597ZM20.0315 15.2179C19.8584 15.1208 19.0989 14.6948 18.3436 14.2712C17.5884 13.8475 16.0779 13.0009 14.987 12.3896C13.896 11.7784 12.8861 11.2111 12.7426 11.129C12.5992 11.0469 12.4662 10.9798 12.447 10.9798C12.4098 10.9798 12.3963 20.061 12.4336 20.0986C12.454 20.1194 12.7938 19.9241 14.5292 18.8937C14.9698 18.6321 15.6821 18.2098 16.1122 17.9552C17.0904 17.3762 18.2264 16.7033 19.24 16.1024C19.6701 15.8474 20.0949 15.5965 20.1841 15.5449C20.2732 15.4933 20.3462 15.4383 20.3462 15.4226C20.3462 15.407 20.2046 15.3149 20.0315 15.2179Z" fill="#2E335B"/>
<path fill-rule="evenodd" clip-rule="evenodd" d="M30.0733 17.0597C29.895 18.4234 29.5931 19.6162 29.1208 20.8234C27.4486 25.098 23.9277 28.3815 19.5452 29.7535C19.099 29.8931 18.5168 30.0494 18.4426 30.0494C18.3897 30.0494 18.3318 29.9574 17.1417 27.9842C16.5911 27.0712 16.0763 26.22 15.9977 26.0926C15.9191 25.9652 15.4726 25.227 15.0056 24.452C14.5386 23.6771 14.0858 22.9275 13.9996 22.7864C13.9132 22.6452 13.5337 22.0162 13.156 21.3887C12.7784 20.7611 12.4566 20.2469 12.4408 20.246C12.4251 20.2451 12.4122 22.4737 12.4122 25.1983C12.4122 27.923 12.4038 30.1608 12.3936 30.1712C12.3834 30.1815 12.1903 30.1505 11.9645 30.1021C11.14 29.9256 10.5627 29.7567 9.79808 29.4685C4.8478 27.6024 1.25403 23.3131 0.242416 18.0633C0.0522682 17.0766 -0.000254397 16.4616 5.08329e-05 15.226C0.000317905 14.2355 0.0136293 13.9476 0.0838903 13.4117C0.195194 12.5632 0.42505 11.4075 0.547187 11.0824L0.585712 10.9798L6.42269 10.9798C9.63303 10.9798 12.2597 10.9656 12.2597 10.9482C12.2597 10.9309 11.9893 10.7633 11.6589 10.5758C10.9242 10.159 9.27013 9.21965 7.82543 8.39877L5.64169 7.15804C5.03329 6.81244 4.24799 6.36607 3.8966 6.16615C3.54518 5.96623 3.2577 5.78407 3.2577 5.76133C3.2577 5.6803 3.81395 5.04479 4.41796 4.43568C5.61991 3.22352 6.90052 2.29915 8.4262 1.54235C10.0006 0.76142 11.3808 0.343278 13.2323 0.0863788C13.7504 0.014501 14.0243 0.00145371 15.0442 6.40638e-05C16.3274 -0.00163439 16.6881 0.0289002 17.8096 0.23415C20.6759 0.758719 23.4383 2.17844 25.5072 4.19032L25.9193 4.59106L25.8471 4.72616C25.8074 4.80047 25.581 5.24344 25.3439 5.71053C25.1068 6.17762 24.806 6.76824 24.6754 7.02301C24.3956 7.56908 23.9346 8.47396 23.417 9.49357C23.2122 9.89697 22.9289 10.4528 22.7874 10.7289C22.6458 11.0049 22.3538 11.5781 22.1384 12.0027C21.9231 12.4274 21.6401 12.9832 21.5096 13.238C20.7251 14.7695 20.4204 15.3804 20.441 15.3804C20.4538 15.3804 20.6737 15.2527 20.9297 15.0967C21.1857 14.9406 22.0817 14.3993 22.9209 13.8937C23.7601 13.3882 24.7385 12.7976 25.0951 12.5813C25.4517 12.365 26.3872 11.8011 27.1739 11.3282C27.9607 10.8554 28.7564 10.374 28.9422 10.2586C29.128 10.1432 29.2852 10.0541 29.2916 10.0607C29.2979 10.0672 29.3641 10.255 29.4387 10.4779C29.7332 11.3584 29.9827 12.5182 30.0905 13.5082C30.1804 14.3341 30.1802 14.3288 30.1667 15.4191C30.1574 16.18 30.1335 16.6002 30.0733 17.0597ZM18.3436 14.2712L20.0315 15.2179C20.2046 15.3149 20.3462 15.407 20.3462 15.4226C20.3462 15.4383 20.2732 15.4933 20.1841 15.5449C20.0949 15.5965 19.6701 15.8474 19.24 16.1024C18.2264 16.7033 17.0904 17.3762 16.1122 17.9552C15.6821 18.2098 14.9698 18.6321 14.5292 18.8937C12.7938 19.9241 12.454 20.1194 12.4336 20.0986C12.3963 20.061 12.4098 10.9798 12.447 10.9798C12.4662 10.9798 12.5992 11.0469 12.7426 11.129C12.8861 11.2111 13.896 11.7784 14.987 12.3896C16.0779 13.0009 17.5884 13.8475 18.3436 14.2712Z" fill="#2E335B"/>
</svg>
